:SAMPLES-PER-SECOND 30
:FULLY-SPECIFIED
:DEGREES
252
root  5.51733 38.0424 2.28406 74.9729 84.725 81.7694
RightUpLeg  3.72505 -0.196493 -7.93457
RightLeg  56.1265 4.04304 6.01318
RightFoot  5.54397 -2.05191 13.8546
RightToes  5.23868e-010 0 -3.6325e-017
Spine  2.42018 1.33436 -5.57295
Spine1  12.7741 0.840078 -1.44548
HEad  -9.44704 2.32405 -2.10961
LeftShoulder1  -0.445333 4.74258 -29.7268
LeftArm  -11.7079 14.412 -34.3478
LeftForeArm  88.4962 -78.2269 -110.286
LeftHand  0.000973726 4.5705 -4.22613
RightShoulder  -0.759081 -5.66416 28.4944
RightArm  -10.4264 -15.826 32.0146
RightForeArm  108.425 72.278 140.416
RightHand  -0.0326272 -3.43538 -0.926426
LeftUpLeg  -13.7188 4.49632 -8.57434
LeftLeg  23.5371 0.671012 0.664807
LeftFoot  -1.9372 -0.549061 6.81516
LeftToes  -4.9204e-010 1.02043e-011 -1.81609e-011
253
root  6.52632 38.1992 2.16667 74.7892 84.723 82.2307
RightUpLeg  -1.23508 0.544346 -8.19612
RightLeg  63.1934 2.93707 5.77357
RightFoot  3.88865 -1.74363 13.1835
RightToes  5.23868e-010 0 -3.6325e-017
Spine  3.89218 1.06941 -6.34049
Spine1  12.5582 0.184856 -1.09889
HEad  -10.0922 2.41221 -2.71066
LeftShoulder1  -0.637089 5.25991 -30.0738
LeftArm  -11.3532 13.2684 -33.877
LeftForeArm  85.195 -78.4382 -107.102
LeftHand  0.000600553 4.61822 -4.45658
RightShoulder  -0.724023 -5.58654 28.1059
RightArm  -10.2012 -15.0577 32.3857
RightForeArm  108.027 72.4233 140.006
RightHand  -0.0301621 -3.10932 -0.914657
LeftUpLeg  -11.0621 4.87217 -8.56684
LeftLeg  23.2344 0.507324 0.525511
LeftFoot  -3.61215 -0.447132 6.93822
LeftToes  -4.9204e-010 1.02043e-011 -1.81609e-011
254
root  7.57153 38.4341 2.0836 78.3833 86.0996 87.2427
RightUpLeg  -4.64452 0.598865 -6.928
RightLeg  66.4223 2.22707 4.96512
RightFoot  2.33568 -1.47035 12.3539
RightToes  5.23868e-010 0 -3.6325e-017
Spine  6.34414 0.733548 -5.59998
Spine1  11.7599 -0.530073 -0.531407
HEad  -9.87123 2.38557 -3.12903
LeftShoulder1  -0.316803 4.39268 -29.5385
LeftArm  -11.6032 13.733 -34.3484
LeftForeArm  85.1435 -78.4207 -107.236
LeftHand  -0.00614242 4.68462 -3.72959
RightShoulder  -0.709128 -5.55204 27.9561
RightArm  -10.4075 -15.011 32.4925
RightForeArm  108.413 72.3732 140.183
RightHand  -0.0299682 -3.09345 -0.678985
LeftUpLeg  -7.29323 5.49913 -6.99355
LeftLeg  22.5728 -0.399096 0.0109372
LeftFoot  -5.12014 -0.363497 7.24561
LeftToes  -4.9204e-010 1.02043e-011 -1.81609e-011
255
root  8.62408 38.6655 2.03932 85.8546 87.5637 96.0419
RightUpLeg  -7.5371 0.820927 -5.25919
RightLeg  66.5129 1.72309 3.71991
RightFoot  1.81501 -1.24454 10.8688
RightToes  5.23868e-010 0 -3.6325e-017
Spine  8.4674 0.503383 -4.96704
Spine1  10.9888 -1.14734 0.156169
HEad  -9.1707 2.44906 -2.85159
LeftShoulder1  -0.333368 4.43399 -29.6901
LeftArm  -11.4318 13.0616 -34.6001
LeftForeArm  83.8922 -78.5323 -105.601
LeftHand  0.0215235 3.99473 -3.88985
RightShoulder  -0.740077 -5.63122 28.1392
RightArm  -10.8427 -15.0704 32.2821
RightForeArm  108.092 72.5093 139.802
RightHand  -0.0311195 -3.73847 -0.840995
LeftUpLeg  -3.48281 6.48337 -4.95545
LeftLeg  21.722 -1.9205 -0.763508
LeftFoot  -6.5231 -0.276277 7.49009
LeftToes  -4.9204e-010 1.02043e-011 -1.81609e-011
256
root  9.65362 38.8826 1.99737 118.599 88.7118 130.01
RightUpLeg  -9.72834 1.1831 -3.55485
RightLeg  63.3741 1.52385 2.77415
RightFoot  1.10602 -1.01702 9.38589
RightToes  5.23868e-010 0 -3.6325e-017
Spine  10.4793 0.203967 -4.26467
Spine1  10.2258 -1.7122 1.07522
HEad  -8.70778 2.21243 -2.90871
LeftShoulder1  -0.337564 4.44609 -29.6766
LeftArm  -11.5881 12.5879 -35.2572
LeftForeArm  84.3417 -78.5494 -105.622
LeftHand  0.0132666 4.19541 -3.87856
RightShoulder  -0.749114 -5.65872 28.1164
RightArm  -11.4406 -15.2199 32.4412
RightForeArm  108.434 72.3586 140.222
RightHand  -0.0224503 -3.63303 -0.492711
LeftUpLeg  0.355803 8.00507 -2.58896
LeftLeg  20.5512 -3.96499 -1.70237
LeftFoot  -7.68254 -0.203885 7.82527
LeftToes  -4.9204e-010 1.02043e-011 -1.81609e-011
257
root  10.6821 39.0466 1.9331 -173.573 88.645 -161.154
RightUpLeg  -10.8561 1.35133 -2.09109
RightLeg  56.9994 1.23734 1.62807
RightFoot  -0.292094 -0.899001 9.24871
RightToes  5.23868e-010 0 -3.6325e-017
Spine  12.3181 -0.311984 -3.19142
Spine1  9.3041 -2.25337 1.61247
HEad  -8.30007 2.49708 -2.6459
LeftShoulder1  -0.3522 4.48989 -29.5473
LeftArm  -11.803 12.4968 -35.834
LeftForeArm  85.6619 -78.5151 -106.543
LeftHand  0.0154689 4.16533 -3.91146
RightShoulder  -0.726111 -5.61236 27.781
RightArm  -11.9705 -15.7241 32.6977
RightForeArm  109.186 72.0057 141.167
RightHand  -0.0238088 -3.61122 -0.276359
LeftUpLeg  3.94014 9.14145 -0.289647
LeftLeg  19.3769 -6.02998 -2.48001
LeftFoot  -8.82661 -0.128289 8.25619
LeftToes  -4.9204e-010 1.02043e-011 -1.81609e-011
258
root  11.6951 39.1478 1.87829 -158.135 87.6209 -145.008
RightUpLeg  -11.2797 1.57868 -1.30145
RightLeg  48.1018 0.910128 0.75661
RightFoot  -1.00368 -0.765603 8.37398
RightToes  5.23868e-010 0 -3.6325e-017
Spine  13.4912 -0.715595 -2.59535
Spine1  8.98156 -2.633 2.1704
HEad  -8.62158 2.24848 -2.27934
LeftShoulder1  -0.299373 4.34968 -29.2333
LeftArm  -11.7747 12.2267 -36.1805
LeftForeArm  85.7144 -78.4918 -106.794
LeftHand  0.0174478 4.26597 -3.93835
RightShoulder  -0.741395 -5.64578 27.9581
RightArm  -12.3483 -15.9334 32.4054
RightForeArm  109.932 71.5784 142.243
RightHand  -0.032136 -3.718 -0.909202
LeftUpLeg  7.08698 9.87384 1.3729
LeftLeg  18.2581 -7.73418 -3.0243
LeftFoot  -9.77303 -0.0595332 8.62062
LeftToes  -4.9204e-010 1.02043e-011 -1.81609e-011
259
root  12.7137 39.1758 1.84266 -160.007 87.0377 -146.785
RightUpLeg  -11.1503 2.11302 -1.21756
RightLeg  36.956 0.353771 0.0482115
RightFoot  -1.53313 -0.734087 8.42413
RightToes  5.23868e-010 0 -3.6325e-017
Spine  13.9728 -0.895772 -2.86104
Spine1  8.60714 -2.9488 3.19193
HEad  -8.52785 2.10818 -2.37412
LeftShoulder1  -0.316281 4.38682 -29.6533
LeftArm  -11.7963 11.6725 -36.0743
LeftForeArm  85.1921 -78.5276 -106.216
LeftHand  0.0255829 4.10831 -4.33063
RightShoulder  -0.690761 -5.52016 27.5818
RightArm  -12.7692 -16.1588 32.5696
RightForeArm  110.761 71.4664 142.596
RightHand  -0.0165481 -3.13817 0.0496787
LeftUpLeg  9.47509 10.3629 2.35861
LeftLeg  17.3509 -9.06976 -3.49709
LeftFoot  -10.9069 0.0327489 8.67312
LeftToes  -4.9204e-010 1.02043e-011 -1.81609e-011
